<svg xmlns="http://www.w3.org/2000/svg" viewBox="0 0 308.99551 175.79646" height="187.516" width="329.595"><g stroke-miterlimit="10" fill="#fff" stroke="#5fb12c" stroke-width="2.5"><path d="M125.18 158.085H79.476l4.224-47.763h37.256zm-60.214 0h74.723v12.38H64.966z"/><path d="M1.25 1.25h202.155v124.892H1.25z"/><path d="M1.25 112.954h202.155v13.188H1.25z"/></g><path d="M74.738 83.034q-1.918 0-3.052 1.43-1.124 1.43-1.124 3.898 0 2.46 1.124 3.89 1.134 1.43 3.052 1.43 1.919 0 3.035-1.43 1.125-1.43 1.125-3.89 0-2.467-1.125-3.898-1.116-1.43-3.035-1.43zm0-1.43q2.739 0 4.378 1.84 1.64 1.831 1.64 4.918 0 3.079-1.64 4.918-1.64 1.832-4.378 1.832-2.746 0-4.394-1.832-1.64-1.83-1.64-4.918 0-3.087 1.64-4.918 1.648-1.84 4.394-1.84zm8.773.236h2.372l5.773 10.891V81.84h1.709v13.019h-2.372L85.22 83.967V94.86h-1.709V81.84zm13.359 0h1.762v11.536h6.34v1.483H96.87v-13.02zm9.941 0h1.762v13.019h-1.762v-13.02zm5.267 0h2.372l5.773 10.891V81.84h1.709v13.019h-2.372l-5.773-10.892V94.86h-1.709V81.84zm13.36 0h8.231v1.482h-6.47v3.854h6.2v1.483h-6.2v4.717h6.627v1.483h-8.388v-13.02z" font-size="17.859" font-family="OpenSans-Bold" fill="#5fb12c"/><g stroke-miterlimit="10" fill="#fff" stroke="#5fb12c" stroke-width="2.5" transform="translate(-358.177 -5218.623)"><circle r="22.732" cy="5266.616" cx="460.505"/><path d="M455.944 5274.77v-16.308l14.123 8.154z"/></g><path d="M214.008 32.34c0 5.969-4.838 10.808-10.807 10.808-5.968 0-10.807-4.838-10.807-10.807v-.01h-19.667v115.898H192.4c0-.041-.006-.08-.006-.121 0-5.97 4.838-10.807 10.807-10.807 5.968 0 10.807 4.838 10.807 10.807 0 .04-.006.08-.006.12h19.673V32.332h-19.667v.01z" stroke-miterlimit="10" fill="#fff" stroke="#5fb12c" stroke-width="2.5"/><path d="M199.108 117.95v-8.635h1.162v3.624h9.044v1.387h-9.044v3.623h-1.162zm0-9.974v-1.381h10.206v1.38h-10.206zm.786-11.772h1.456q-.65.697-.97 1.49-.322.787-.322 1.675 0 1.75 1.073 2.68 1.066.93 3.09.93 2.017 0 3.09-.93 1.066-.93 1.066-2.68 0-.888-.321-1.675-.321-.793-.97-1.49h1.442q.492.725.738 1.538.246.807.246 1.71 0 2.317-1.415 3.65-1.422 1.333-3.876 1.333-2.461 0-3.876-1.333-1.422-1.333-1.422-3.65 0-.917.246-1.723.24-.814.725-1.525zm-.786-2.146v-1.381h4.313l-4.313-4.58v-1.778l4.757 5.066 5.449-5.428v1.818l-4.915 4.902h4.915v1.38h-10.206zm0-9.188v-6.453h1.162v5.072h3.021v-4.86h1.162v4.86h3.699v-5.195h1.162v6.576h-10.206zm0-7.444v-8.634h1.162v3.623h9.044v1.388h-9.044v3.623h-1.162z" font-size="14" font-family="OpenSans-Bold" fill="#5fb12c"/><path fill="#fff" d="M172.728 54.278h60.947"/><g stroke-miterlimit="10" fill="none" stroke="#5fb12c" stroke-width="2.5"><path d="M172.728 54.278h3.175"/><path stroke-dasharray="5.7471,4.3103" d="M180.213 54.278h48.133"/><path d="M230.501 54.278h3.174"/></g><path d="M289.497 60.762c-2.516 5.412-8.944 7.759-14.356 5.242-5.412-2.516-7.759-8.943-5.242-14.355l.004-.01-17.833-8.293-48.868 105.092 17.839 8.295c.017-.037.028-.075.046-.112 2.516-5.412 8.944-7.759 14.355-5.242 5.412 2.517 7.759 8.944 5.243 14.355-.017.037-.039.07-.057.107l17.839 8.295 48.868-105.091-17.834-8.293c-.002 0-.003 0-.004.01z" stroke-miterlimit="10" fill="#fff" stroke="#5fb12c" stroke-width="2.5"/><path d="M235.91 137.435l3.64-7.829 1.053.49-1.527 3.286 8.2 3.813-.584 1.258-8.201-3.813-1.528 3.285-1.054-.49zm4.204-9.044l.582-1.252 9.255 4.303-.582 1.252-9.255-4.303zm5.676-10.343l1.32.614q-.883.359-1.508.942-.623.578-.998 1.384-.737 1.587-.156 2.882.575 1.293 2.41 2.146 1.828.85 3.194.46 1.359-.394 2.096-1.98.375-.807.415-1.655.043-.855-.252-1.76l1.308.607q.14.865.021 1.706-.117.836-.497 1.654-.977 2.101-2.822 2.713-1.852.61-4.077-.425-2.232-1.037-2.953-2.843-.727-1.808.25-3.91.386-.83.95-1.458.56-.637 1.299-1.077zm.192-2.278l.582-1.252 3.912 1.819-1.98-5.972.749-1.612 2.178 6.6 7.23-2.625-.768 1.649-6.523 2.372 4.457 2.072-.582 1.252-9.255-4.302zm3.874-8.33l2.72-5.852 1.054.49-2.139 4.6 2.74 1.273 2.05-4.407 1.053.49-2.049 4.407 3.354 1.56 2.19-4.712 1.054.49-2.773 5.963-9.254-4.303zm3.138-6.751l3.64-7.83 1.054.49-1.528 3.286 8.201 3.813-.585 1.258-8.2-3.813-1.528 3.286-1.054-.49z" font-size="14" font-family="OpenSans-Bold" fill="#5fb12c"/><path fill="#fff" d="M243.307 63.709l55.264 25.698"/><g stroke-miterlimit="10" fill="none" stroke="#5fb12c" stroke-width="2.5"><path d="M243.307 63.709l2.878 1.339"/><path stroke-dasharray="5.7471,4.3103" d="M250.094 66.865l43.644 20.295"/><path d="M295.692 88.068l2.879 1.339"/></g></svg>