<svg xmlns="http://www.w3.org/2000/svg" viewBox="0 0 90 90.000004" height="90" width="90"><path d="M12.257 71.566a5.614 5.614 0 0 1-2.203-.862A6.08 6.08 0 0 1 8.78 69.48c-.307-.41-.723-1.24-.847-1.687-.356-1.29-.253-2.582.299-3.74a5.03 5.03 0 0 1 .954-1.405 5.373 5.373 0 0 1 3.232-1.63c.289-.034 9.067-.043 32.84-.033 31.115.013 32.458.016 32.765.09 1.355.327 2.429 1.013 3.201 2.048.307.41.723 1.24.847 1.687a5.495 5.495 0 0 1-.001 2.983c-.112.402-.443 1.1-.71 1.5a6.15 6.15 0 0 1-1.218 1.273c-.402.303-1.242.724-1.693.848-.823.227 1.472.213-33.49.209-25.767 0-32.43-.015-32.7-.058zm0-21.304a5.614 5.614 0 0 1-2.203-.862 6.08 6.08 0 0 1-1.275-1.223c-.307-.41-.723-1.24-.847-1.687-.356-1.29-.253-2.581.299-3.74a5.01 5.01 0 0 1 .954-1.404 5.373 5.373 0 0 1 3.232-1.63c.289-.035 9.067-.044 32.84-.034 31.115.013 32.458.017 32.765.09 1.355.327 2.429 1.013 3.201 2.048.307.41.723 1.24.847 1.687a5.495 5.495 0 0 1-.001 2.983c-.112.402-.443 1.1-.71 1.5a6.15 6.15 0 0 1-1.218 1.273c-.402.303-1.242.724-1.693.848-.823.228 1.472.213-33.49.209-25.767 0-32.43-.015-32.7-.057zm0-21.303a5.614 5.614 0 0 1-2.203-.863 6.082 6.082 0 0 1-1.275-1.223c-.307-.41-.723-1.24-.847-1.687-.356-1.29-.253-2.581.299-3.74a5.01 5.01 0 0 1 .954-1.404 5.373 5.373 0 0 1 3.232-1.63c.289-.035 9.067-.044 32.84-.034 31.115.013 32.458.017 32.765.09 1.355.327 2.429 1.013 3.201 2.048.307.41.723 1.24.847 1.687a5.496 5.496 0 0 1-.001 2.983c-.112.402-.443 1.1-.71 1.5a6.148 6.148 0 0 1-1.218 1.273c-.402.303-1.242.724-1.693.849-.823.227 1.472.212-33.49.208-25.767-.003-32.43-.015-32.7-.057z" fill="#2b2a29"/></svg>