<svg xmlns="http://www.w3.org/2000/svg" width="22.806" height="16.545" viewBox="0 0 21.381001 15.510999"><path d="M19.178 15.511H2.205A2.206 2.206 0 0 1 0 13.307V2.203C0 .988.989 0 2.205 0h16.973c1.214 0 2.203.988 2.203 2.203v11.104a2.206 2.206 0 0 1-2.203 2.204zM2.205 1.869a.336.336 0 0 0-.336.334v11.104c0 .184.151.335.336.335h16.973a.335.335 0 0 0 .334-.335V2.203a.335.335 0 0 0-.334-.334H2.205z" fill="#707173"/><path d="M19.178 15.044H2.205a1.746 1.746 0 0 1-1.621-1.122.468.468 0 0 1 .126-.515l6.625-5.908a.467.467 0 0 1 .623.697l-6.34 5.652c.15.162.361.26.588.26h16.973a.805.805 0 0 0 .586-.259L13.352 8.13a.468.468 0 0 1 .623-.698l6.698 5.974a.467.467 0 0 1 .126.514 1.743 1.743 0 0 1-1.621 1.124z" fill="#707173"/><path d="M10.692 10.845a.47.47 0 0 1-.312-.118L.711 2.104a.468.468 0 0 1-.126-.515A1.743 1.743 0 0 1 2.206.468h16.973c.715 0 1.365.451 1.619 1.122a.467.467 0 0 1-.126.514l-9.669 8.623a.467.467 0 0 1-.311.118zM1.619 1.662l9.072 8.09 9.073-8.091a.804.804 0 0 0-.586-.259H2.205a.796.796 0 0 0-.586.26z" fill="#707173"/></svg>