<svg xmlns="http://www.w3.org/2000/svg" width="24.438" height="24.561" viewBox="0 0 22.910877 23.026"><path d="M17.126 23.026c-4.161 0-8.463-1.916-11.803-5.256l-.068-.071C1.817 14.264-.098 9.847.004 5.588l.01-.312.193-.244c.299-.381.595-.716.903-1.026 1.135-1.133 2.468-2 3.962-2.58a1.69 1.69 0 0 1 .61-.107c.504 0 1.639.257 1.925 1.052.509 1.411 1.154 3.258 1.623 5.03.135.513-.024 1.712-.692 2.133l-1.652 1.049c.015.011.01.27.224.565a23.32 23.32 0 0 0 2.205 2.584 22.918 22.918 0 0 0 2.566 2.186c.17.124.36.196.516.196a.25.25 0 0 0 .093-.013l1.006-1.614c.454-.71 1.602-.73 1.732-.73.135 0 .254.012.363.036 2.176.485 3.47.903 5.134 1.656.736.334 1.203 1.672.874 2.511a11.387 11.387 0 0 1-2.575 3.957c-.316.315-.662.62-1.031.908l-.243.191-.621.01zM1.87 5.944c.015 3.609 1.759 7.488 4.709 10.439l.09.093c2.958 2.954 6.759 4.668 10.415 4.681.219-.184.427-.372.62-.563a9.53 9.53 0 0 0 2.155-3.312c-.011-.006-.047-.121-.088-.213-1.445-.643-2.634-1.018-4.588-1.454a2.373 2.373 0 0 0-.22.046l-.937 1.481c-.586.948-2.135 1.098-3.247.284a24.663 24.663 0 0 1-2.785-2.373A25.114 25.114 0 0 1 5.6 12.249c-.458-.626-.646-1.372-.515-2.043.102-.519.389-.948.807-1.207l1.478-.937a1.04 1.04 0 0 0 .036-.257c-.411-1.536-.993-3.222-1.473-4.562a.845.845 0 0 0-.254-.054 9.567 9.567 0 0 0-3.81 2.755zm20.106 5.891a.933.933 0 0 1-.934-.934c0-4.981-4.052-9.032-9.032-9.032a.935.935 0 0 1 0-1.869c6.012 0 10.9 4.89 10.9 10.901a.935.935 0 0 1-.934.934z" fill="#707173"/><path d="M18.65 12.234a.933.933 0 0 1-.934-.934 6.113 6.113 0 0 0-6.107-6.105.934.934 0 1 1 0-1.868c4.397 0 7.976 3.577 7.976 7.974a.934.934 0 0 1-.935.933z" fill="#707173"/><path d="M15.166 12.633a.933.933 0 0 1-.934-.934 3.026 3.026 0 0 0-3.022-3.021.934.934 0 1 1 0-1.869 4.895 4.895 0 0 1 4.89 4.889.934.934 0 0 1-.934.935z" fill="#707173"/></svg>