<svg xmlns="http://www.w3.org/2000/svg" viewBox="0 0 170.748 98.635998" height="105.212" width="182.131"><path d="M59.009 58.993a13.653 13.653 0 0 1-9.692 4.02c-7.564 0-13.695-6.131-13.695-13.695s6.131-13.695 13.695-13.695c3.802 0 7.241 1.55 9.723 4.052l25.186-25.194C75.298 5.535 62.955 0 49.318 0 22.08 0 0 22.081 0 49.318s22.081 49.318 49.318 49.318c13.62 0 25.951-5.521 34.876-14.447L59.009 58.993z" fill="#5fb12c"/><path d="M59.009 58.993a13.653 13.653 0 0 1-9.692 4.02c-7.564 0-13.695-6.131-13.695-13.695s6.131-13.695 13.695-13.695c3.802 0 7.241 1.55 9.723 4.052l11.115-11.119c-5.326-5.346-12.696-8.654-20.838-8.654-16.246 0-29.416 13.17-29.416 29.416 0 16.246 13.17 29.416 29.416 29.416 8.126 0 15.482-3.295 20.806-8.622L59.009 58.993z" fill="#2b2a29"/><path fill="#2b2a29" d="M47.427 55.213h3.822v-3.93h3.93v-3.822h-3.93v-3.93h-3.822v3.93h-3.93v3.822h3.93zm13.25 0h3.822v-3.93h3.93v-3.822h-3.93v-3.93h-3.822v3.93h-3.93v3.822h3.93zm16.779 3.049V39.714h5.283c2.069 0 3.511.095 4.327.285.815.19 1.518.509 2.109.957a4.998 4.998 0 0 1 1.539 1.938c.359.786.538 1.651.538 2.597 0 1.436-.353 2.604-1.058 3.503-.705.899-1.734 1.497-3.085 1.793l5.055 7.475h-5.713l-4.257-7.259v7.259h-4.738zm4.738-9.781h.938c1.09 0 1.885-.186 2.388-.557.503-.371.754-.954.754-1.748 0-.929-.234-1.59-.703-1.983s-1.257-.589-2.363-.589h-1.013v4.877zm11.782-8.767h5.042v9.02c0 1.326.034 2.278.102 2.857.067.578.181 1.062.342 1.45.194.473.532.834 1.014 1.083.481.249 1.068.374 1.761.374.693 0 1.277-.125 1.755-.374.477-.249.817-.61 1.02-1.083.161-.388.274-.872.342-1.45.067-.578.101-1.531.101-2.857v-9.02h5.03v9.806c0 2.036-.122 3.537-.367 4.504-.245.967-.659 1.792-1.241 2.477-.634.752-1.503 1.316-2.61 1.691-1.106.376-2.45.564-4.029.564-1.588 0-2.933-.188-4.035-.564-1.102-.376-1.974-.939-2.616-1.691-.575-.684-.986-1.509-1.236-2.477-.249-.967-.374-2.468-.374-4.504v-9.806zm21.169 12.555c.752.853 1.492 1.491 2.223 1.913.731.422 1.459.633 2.186.633.675 0 1.23-.182 1.666-.545.435-.363.653-.823.653-1.381 0-.616-.188-1.091-.564-1.425-.376-.333-1.227-.678-2.553-1.033-1.816-.49-3.099-1.127-3.851-1.913-.752-.786-1.128-1.862-1.128-3.231 0-1.774.593-3.22 1.78-4.339 1.186-1.119 2.726-1.679 4.618-1.679 1.022 0 1.991.137 2.907.412.917.274 1.784.69 2.603 1.248l-1.583 3.636a6.666 6.666 0 0 0-1.767-1.109 4.68 4.68 0 0 0-1.793-.374c-.608 0-1.102.146-1.482.437-.38.291-.57.665-.57 1.121 0 .465.167.836.5 1.115.334.279.978.545 1.932.798l.228.063c2.061.557 3.416 1.17 4.067 1.837a4.53 4.53 0 0 1 1.001 1.641c.228.638.342 1.345.342 2.122 0 1.968-.646 3.55-1.938 4.744-1.292 1.195-3.015 1.793-5.169 1.793-1.292 0-2.468-.22-3.528-.659-1.06-.439-2.08-1.128-3.06-2.065l2.28-3.76zm15.076 0c.752.853 1.493 1.491 2.223 1.913.731.422 1.459.633 2.186.633.675 0 1.23-.182 1.666-.545a1.72 1.72 0 0 0 .652-1.381c0-.616-.188-1.091-.563-1.425-.376-.333-1.227-.678-2.553-1.033-1.816-.49-3.099-1.127-3.851-1.913-.752-.786-1.128-1.862-1.128-3.231 0-1.774.593-3.22 1.78-4.339 1.187-1.119 2.726-1.679 4.618-1.679 1.022 0 1.991.137 2.907.412.916.274 1.784.69 2.603 1.248l-1.583 3.636a6.666 6.666 0 0 0-1.767-1.109 4.675 4.675 0 0 0-1.792-.374c-.608 0-1.102.146-1.482.437-.38.291-.57.665-.57 1.121 0 .465.167.836.5 1.115.334.279.978.545 1.932.798l.228.063c2.061.557 3.416 1.17 4.067 1.837a4.53 4.53 0 0 1 1.001 1.641c.228.638.342 1.345.342 2.122 0 1.968-.646 3.55-1.938 4.744-1.292 1.195-3.015 1.793-5.169 1.793-1.292 0-2.469-.22-3.528-.659-1.06-.439-2.08-1.128-3.06-2.065l2.279-3.76zm14.38 5.993V39.714h5.106v18.547h-5.106zm7.005 0l6.398-18.547h6.334l6.41 18.547h-5.029l-.938-3.319h-7.183l-.963 3.319h-5.029zm7.082-6.93h5.029l-1.888-6.119c-.059-.186-.14-.486-.241-.899l-.393-1.596c-.109.456-.218.891-.323 1.305-.106.414-.213.811-.323 1.191l-1.861 6.118z"/></svg>