<svg xmlns="http://www.w3.org/2000/svg" viewBox="0 0 342.22418 295.26714" height="314.952" width="365.039"><g stroke-miterlimit="10" fill="#fff" stroke="#5fb12c" stroke-width="2.5" transform="translate(-360.386 -651.609)"><path d="M444.13 941.374h83.121s-5.379-21.171-33.491-58.133c-27.354-35.966-43.452-46.404-48.167-48.925-.975-.522-.951-.528-1.894-.026-4.652 2.475-20.766 12.861-48.215 48.951-28.112 36.962-33.491 58.133-33.491 58.133h83.121-.984zm-17.392-18.427h35.767"/><circle r="10.785" cy="892.646" cx="444.621"/><path d="M436.642 725.17h15.96v140.777h-15.96zm25.729-49.543h-35.499l9.707 49.543h16.085zm-33.948 7.691h-13.161"/><circle r="5.217" cy="683.318" cx="410.785"/><path d="M431.403 700.37h-13.162"/><circle r="5.217" cy="700.37" cx="413.765"/><path d="M435.004 717.423h-13.162"/><circle r="5.217" cy="717.423" cx="417.366"/></g><g stroke-miterlimit="10" fill="#fff" stroke="#5fb12c" stroke-width="2.5"><path d="M230.471 278.673h-40.946l3.784-42.792h33.378zm-53.946 0h66.945v11.092h-66.945z"/><path d="M119.441 138.162h181.113v111.892H119.441z"/><path d="M119.441 238.239h181.113v11.815H119.441z"/></g><path d="M134.607 153.906h78m-78 39.065h86.75m-86.75 9.767h86.75m-86.75-39.065h51.166m-51.166 48.831h51.166m-51.166-39.065h60.416m-60.416 48.831h60.416m-60.416-39.065h109.916" stroke-miterlimit="10" fill="#fff" stroke="#5fb12c" stroke-width="2.5"/><path fill="#5fb12c" d="M228.364 46.009h3.391v-3.488h3.488V39.13h-3.488v-3.487h-3.39v3.487h-3.488v3.391h3.487zm-58.158-35.643h3.391V6.879h3.488V3.487h-3.488V0h-3.39v3.487h-3.488v3.392h3.487zm8.792 65.66h3.391v-3.488h3.488v-3.391h-3.488v-3.488H179v3.488h-3.489v3.391h3.488zm31.007 39.461h3.391V112h3.488v-3.392h-3.488v-3.487h-3.39v3.487h-3.488V112h3.487z"/><g stroke-miterlimit="10" stroke="#5fb12c" stroke-width="2.5" transform="translate(-360.386 -651.609)"><path d="M661.357 945.626c-12.116.018-19.722-1.759-22.638-3.329-2.917-1.571-18.388-28.23-17.725-53.847.561-21.651 8.793-29.293 10.831-36.467 1.829-6.438-.084-12.284.925-18.454 2.253-13.778 14.046-24.365 28.439-24.365h-.045c14.392 0 26.186 10.587 28.439 24.365 1.009 6.17-.905 12.016.925 18.454 2.039 7.174 10.271 14.816 10.831 36.467.664 25.617-14.808 52.276-17.725 53.847-2.917 1.57-10.523 3.347-22.638 3.329h.381z" fill="#fff"/><circle r="19.622" cy="838.138" cx="661.166" fill="none"/><path d="M682.684 826.439s-6.114 5.048-15.93 2.805c-9.271-2.119-11.788-9.729-11.788-9.729s-.583 11.642-12.367 12.259m15.742 5.99s-3.534-4.415-7.948 0m22.48 0s-3.534-4.415-7.948 0m-10.558-1.961v2.948m14.531-2.948v2.948m-13.857 8.717a8.216 8.216 0 0 0 6.125 2.731 8.216 8.216 0 0 0 6.125-2.731" fill="none" stroke-linejoin="round"/><g fill="none" stroke-linejoin="round"><path d="M662.033 863.828a20.716 20.716 0 0 0 .76 13.013 20.712 20.712 0 0 0 8.354 10.007 20.71 20.71 0 0 0-.761-13.013 20.716 20.716 0 0 0-8.353-10.007z"/><path d="M660.299 863.828a20.716 20.716 0 0 1-.76 13.013 20.712 20.712 0 0 1-8.354 10.007 20.71 20.71 0 0 1 .761-13.013 20.705 20.705 0 0 1 8.353-10.007z"/></g><circle r="4.813" cy="862.573" cx="661.166" fill="#fff" stroke-linejoin="round"/><path d="M665.979 864.749s9.421 8.557 33.873 10.589m-43.499-10.589s-9.421 8.557-33.873 10.589" fill="none" stroke-linejoin="round"/></g></svg>