<?xml version="1.0" encoding="UTF-8" standalone="no"?>
<svg
   xmlns:dc="http://purl.org/dc/elements/1.1/"
   xmlns:cc="http://creativecommons.org/ns#"
   xmlns:rdf="http://www.w3.org/1999/02/22-rdf-syntax-ns#"
   xmlns:svg="http://www.w3.org/2000/svg"
   xmlns="http://www.w3.org/2000/svg"
   xmlns:sodipodi="http://sodipodi.sourceforge.net/DTD/sodipodi-0.dtd"
   xmlns:inkscape="http://www.inkscape.org/namespaces/inkscape"
   version="1.1"
   id="svg44305"
   viewBox="0 0 308.99551 175.79646"
   height="49.613667mm"
   width="87.205399mm"
   inkscape:version="0.91 r13725"
   sodipodi:docname="elem-buy-tickets.svg">
  <sodipodi:namedview
     pagecolor="#ffffff"
     bordercolor="#666666"
     borderopacity="1"
     objecttolerance="10"
     gridtolerance="10"
     guidetolerance="10"
     inkscape:pageopacity="0"
     inkscape:pageshadow="2"
     inkscape:window-width="1770"
     inkscape:window-height="870"
     id="namedview35"
     showgrid="false"
     inkscape:zoom="2.5890344"
     inkscape:cx="112.54732"
     inkscape:cy="55.730844"
     inkscape:window-x="36"
     inkscape:window-y="183"
     inkscape:window-maximized="0"
     inkscape:current-layer="g37819" />
  <defs
     id="defs44307" />
  <metadata
     id="metadata44310">
    <rdf:RDF>
      <cc:Work
         rdf:about="">
        <dc:format>image/svg+xml</dc:format>
        <dc:type
           rdf:resource="http://purl.org/dc/dcmitype/StillImage" />
        <dc:title />
      </cc:Work>
    </rdf:RDF>
  </metadata>
  <g
     transform="translate(-102.6451,-141.60685)"
     id="layer1">
    <g
       id="g37781"
       transform="translate(-255.5319,-5077.0162)">
      <g
         id="g37783">
        <polygon
           id="polygon37785"
           points="483.357,5376.708 437.653,5376.708 441.877,5328.945 479.133,5328.945 "
           stroke-miterlimit="10"
           style="fill:#ffffff;stroke:#5fb12c;stroke-width:2.5;stroke-miterlimit:10" />
        <rect
           id="rect37787"
           height="12.381"
           width="74.723"
           stroke-miterlimit="10"
           y="5376.708"
           x="423.14301"
           style="fill:#ffffff;stroke:#5fb12c;stroke-width:2.5;stroke-miterlimit:10" />
        <rect
           id="rect37789"
           height="124.892"
           width="202.155"
           stroke-miterlimit="10"
           y="5219.873"
           x="359.427"
           style="fill:#ffffff;stroke:#5fb12c;stroke-width:2.5;stroke-miterlimit:10" />
        <rect
           id="rect37791"
           height="13.188"
           width="202.155"
           stroke-miterlimit="10"
           y="5331.5771"
           x="359.427"
           style="fill:#ffffff;stroke:#5fb12c;stroke-width:2.5;stroke-miterlimit:10" />
      </g>
      <g
         transform="translate(425.8783,5313.4819)"
         style="font-size:17.85890007px;font-family:OpenSans-Bold;fill:#5fb12c"
         id="text37793">
        <path
           d="m 7.037174,-11.824545 q -1.9184365,0 -3.0520581,1.430107 -1.1249014,1.4301073 -1.1249014,3.8979143 0,2.4590868 1.1249014,3.8891941 1.1336216,1.4301072 3.0520581,1.4301072 1.9184365,0 3.034618,-1.4301072 1.124901,-1.4301073 1.124901,-3.8891941 0,-2.467807 -1.124901,-3.8979143 -1.1161815,-1.430107 -3.034618,-1.430107 z m 0,-1.430107 q 2.7381321,0 4.377523,1.839955 1.639392,1.8312345 1.639392,4.9181733 0,3.0782186 -1.639392,4.9181736 -1.6393909,1.83123492 -4.377523,1.83123492 -2.7468523,0 -4.3949637,-1.83123492 -1.6393912,-1.8312348 -1.6393912,-4.9181736 0,-3.0869388 1.6393912,-4.9181733 1.6481114,-1.839955 4.3949637,-1.839955 z"
           style="font-size:17.85890007px;font-family:OpenSans-Bold;fill:#5fb12c"
           id="path4164" />
        <path
           d="m 15.809661,-13.019208 2.371885,0 5.77275,10.8914875 0,-10.8914875 1.709153,0 0,13.019208 -2.371885,0 -5.77275,-10.891487 0,10.891487 -1.709153,0 0,-13.019208 z"
           style="font-size:17.85890007px;font-family:OpenSans-Bold;fill:#5fb12c"
           id="path4166" />
        <path
           d="m 29.168956,-13.019208 1.761473,0 0,11.5367798 6.339561,0 0,1.4824282 -8.101034,0 0,-13.019208 z"
           style="font-size:17.85890007px;font-family:OpenSans-Bold;fill:#5fb12c"
           id="path4168" />
        <path
           d="m 39.109946,-13.019208 1.761474,0 0,13.019208 -1.761474,0 0,-13.019208 z"
           style="font-size:17.85890007px;font-family:OpenSans-Bold;fill:#5fb12c"
           id="path4170" />
        <path
           d="m 44.376926,-13.019208 2.371885,0 5.77275,10.8914875 0,-10.8914875 1.709152,0 0,13.019208 -2.371885,0 -5.77275,-10.891487 0,10.891487 -1.709152,0 0,-13.019208 z"
           style="font-size:17.85890007px;font-family:OpenSans-Bold;fill:#5fb12c"
           id="path4172" />
        <path
           d="m 57.73622,-13.019208 8.231837,0 0,1.482428 -6.470363,0 0,3.8543137 6.200038,0 0,1.4824282 -6.200038,0 0,4.7176099 6.627326,0 0,1.4824282 -8.3888,0 0,-13.019208 z"
           style="font-size:17.85890007px;font-family:OpenSans-Bold;fill:#5fb12c"
           id="path4174" />
      </g>
      <g
         id="g37795">
        <circle
           id="circle37797"
           r="22.732"
           cy="5266.6162"
           cx="460.505"
           stroke-miterlimit="10"
           style="fill:#ffffff;stroke:#5fb12c;stroke-width:2.5;stroke-miterlimit:10" />
        <polygon
           id="polygon37799"
           points="455.944,5274.77 455.944,5258.462 470.067,5266.616 "
           stroke-miterlimit="10"
           style="fill:#ffffff;stroke:#5fb12c;stroke-width:2.5;stroke-miterlimit:10" />
      </g>
      <path
         id="path37801"
         d="m 572.185,5250.964 c 0,5.968 -4.838,10.807 -10.807,10.807 -5.968,0 -10.807,-4.838 -10.807,-10.807 l 0,-0.01 -19.667,0 0,115.898 19.673,0 c 0,-0.041 -0.006,-0.08 -0.006,-0.121 0,-5.969 4.838,-10.807 10.807,-10.807 5.968,0 10.807,4.838 10.807,10.807 0,0.041 -0.006,0.08 -0.006,0.121 l 19.673,0 0,-115.898 -19.667,0 0,0.01 z"
         stroke-miterlimit="10"
         style="fill:#ffffff;stroke:#5fb12c;stroke-width:2.5;stroke-miterlimit:10" />
      <g
         transform="matrix(0,-1,1,0,567.4907,5336.5313)"
         style="font-size:14px;font-family:OpenSans-Bold;fill:#5fb12c"
         id="text37803">
        <path
           d="m -0.04101562,-10.206055 8.63378902,0 0,1.1621097 -3.6230468,0 0,9.0439453 -1.3876953,0 0,-9.0439453 -3.62304692,0 0,-1.1621097 z"
           style="font-size:14px;font-family:OpenSans-Bold;fill:#5fb12c"
           id="path4177" />
        <path
           d="m 9.9326172,-10.206055 1.3808598,0 0,10.206055 -1.3808598,0 0,-10.206055 z"
           style="font-size:14px;font-family:OpenSans-Bold;fill:#5fb12c"
           id="path4179" />
        <path
           d="m 21.704102,-9.4199219 0,1.4560547 q -0.697266,-0.6494141 -1.490235,-0.9707031 -0.786133,-0.3212891 -1.674805,-0.3212891 -1.75,0 -2.679687,1.0732422 -0.929687,1.0664063 -0.929687,3.0898438 0,2.0166015 0.929687,3.0898437 0.929687,1.06640626 2.679687,1.06640626 0.888672,0 1.674805,-0.32128906 0.792969,-0.3212891 1.490235,-0.9707031 l 0,1.44238279 q -0.72461,0.4921875 -1.538086,0.73828125 -0.806641,0.24609375 -1.708985,0.24609375 -2.317383,0 -3.65039,-1.41503909 -1.333008,-1.421875 -1.333008,-3.8759765 0,-2.4609375 1.333008,-3.8759766 1.333007,-1.421875 3.65039,-1.421875 0.916016,0 1.722656,0.246094 0.813477,0.2392576 1.524415,0.7246091 z"
           style="font-size:14px;font-family:OpenSans-Bold;fill:#5fb12c"
           id="path4181" />
        <path
           d="m 23.850586,-10.206055 1.380859,0 0,4.3134769 4.580078,-4.3134769 1.777344,0 -5.06543,4.7578128 L 31.951172,0 l -1.81836,0 -4.901367,-4.9150391 0,4.9150391 -1.380859,0 0,-10.206055 z"
           style="font-size:14px;font-family:OpenSans-Bold;fill:#5fb12c"
           id="path4183" />
        <path
           d="m 33.038086,-10.206055 6.453125,0 0,1.1621097 -5.072266,0 0,3.0214844 4.860352,0 0,1.1621093 -4.860352,0 0,3.6982422 5.195313,0 0,1.1621094 -6.576172,0 0,-10.206055 z"
           style="font-size:14px;font-family:OpenSans-Bold;fill:#5fb12c"
           id="path4185" />
        <path
           d="m 40.482422,-10.206055 8.633789,0 0,1.1621097 -3.623047,0 0,9.0439453 -1.387695,0 0,-9.0439453 -3.623047,0 0,-1.1621097 z"
           style="font-size:14px;font-family:OpenSans-Bold;fill:#5fb12c"
           id="path4187" />
      </g>
      <g
         id="g37805">
        <g
           id="g37807">
          <line
             id="line37809"
             y2="5272.9009"
             x2="591.85199"
             y1="5272.9009"
             x1="530.90503"
             style="fill:#ffffff" />
          <g
             id="g37811">
            <line
               id="line37813"
               y2="5272.9009"
               x2="534.08002"
               y1="5272.9009"
               x1="530.90503"
               stroke-miterlimit="10"
               style="fill:none;stroke:#5fb12c;stroke-width:2.5;stroke-miterlimit:10" />
            <line
               id="line37815"
               y2="5272.9009"
               x2="586.52301"
               y1="5272.9009"
               x1="538.39001"
               stroke-miterlimit="10"
               style="fill:none;stroke:#5fb12c;stroke-width:2.5;stroke-miterlimit:10;stroke-dasharray:5.7471, 4.3103" />
            <line
               id="line37817"
               y2="5272.9009"
               x2="591.85199"
               y1="5272.9009"
               x1="588.67798"
               stroke-miterlimit="10"
               style="fill:none;stroke:#5fb12c;stroke-width:2.5;stroke-miterlimit:10" />
          </g>
        </g>
      </g>
      <g
         id="g37819">
        <path
           id="path37821"
           d="m 647.674,5279.385 c -2.516,5.412 -8.944,7.759 -14.356,5.242 -5.412,-2.516 -7.759,-8.943 -5.242,-14.355 10e-4,0 0.004,-0.01 0.004,-0.01 l -17.833,-8.293 -48.868,105.092 17.839,8.295 c 0.017,-0.037 0.028,-0.075 0.046,-0.112 2.516,-5.412 8.944,-7.759 14.355,-5.242 5.412,2.517 7.759,8.944 5.243,14.355 -0.017,0.037 -0.039,0.07 -0.057,0.107 l 17.839,8.295 48.868,-105.091 -17.834,-8.293 c -0.002,0 -0.003,0 -0.004,0.01 z"
           stroke-miterlimit="10"
           style="fill:#ffffff;stroke:#5fb12c;stroke-width:2.5;stroke-miterlimit:10"
           inkscape:connector-curvature="0"
           sodipodi:nodetypes="ccccccccccccccc" />
        <g
           transform="matrix(0.4216,-0.9068,0.9068,0.4216,603.3585,5360.3242)"
           style="font-size:14px;font-family:OpenSans-Bold;fill:#5fb12c"
           id="text37823">
          <path
             d="m -0.04101562,-10.206055 8.63378902,0 0,1.1621097 -3.6230468,0 0,9.0439453 -1.3876953,0 0,-9.0439453 -3.62304692,0 0,-1.1621097 z"
             style="font-size:14px;font-family:OpenSans-Bold;fill:#5fb12c"
             id="path4190" />
          <path
             d="m 9.9326172,-10.206055 1.3808598,0 0,10.206055 -1.3808598,0 0,-10.206055 z"
             style="font-size:14px;font-family:OpenSans-Bold;fill:#5fb12c"
             id="path4192" />
          <path
             d="m 21.704102,-9.4199219 0,1.4560547 q -0.697266,-0.6494141 -1.490235,-0.9707031 -0.786133,-0.3212891 -1.674805,-0.3212891 -1.75,0 -2.679687,1.0732422 -0.929687,1.0664063 -0.929687,3.0898438 0,2.0166015 0.929687,3.0898437 0.929687,1.06640626 2.679687,1.06640626 0.888672,0 1.674805,-0.32128906 0.792969,-0.3212891 1.490235,-0.9707031 l 0,1.44238279 q -0.72461,0.4921875 -1.538086,0.73828125 -0.806641,0.24609375 -1.708985,0.24609375 -2.317383,0 -3.65039,-1.41503909 -1.333008,-1.421875 -1.333008,-3.8759765 0,-2.4609375 1.333008,-3.8759766 1.333007,-1.421875 3.65039,-1.421875 0.916016,0 1.722656,0.246094 0.813477,0.2392576 1.524415,0.7246091 z"
             style="font-size:14px;font-family:OpenSans-Bold;fill:#5fb12c"
             id="path4194" />
          <path
             d="m 23.850586,-10.206055 1.380859,0 0,4.3134769 4.580078,-4.3134769 1.777344,0 -5.06543,4.7578128 L 31.951172,0 l -1.81836,0 -4.901367,-4.9150391 0,4.9150391 -1.380859,0 0,-10.206055 z"
             style="font-size:14px;font-family:OpenSans-Bold;fill:#5fb12c"
             id="path4196" />
          <path
             d="m 33.038086,-10.206055 6.453125,0 0,1.1621097 -5.072266,0 0,3.0214844 4.860352,0 0,1.1621093 -4.860352,0 0,3.6982422 5.195313,0 0,1.1621094 -6.576172,0 0,-10.206055 z"
             style="font-size:14px;font-family:OpenSans-Bold;fill:#5fb12c"
             id="path4198" />
          <path
             d="m 40.482422,-10.206055 8.633789,0 0,1.1621097 -3.623047,0 0,9.0439453 -1.387695,0 0,-9.0439453 -3.623047,0 0,-1.1621097 z"
             style="font-size:14px;font-family:OpenSans-Bold;fill:#5fb12c"
             id="path4200" />
        </g>
        <g
           id="g37825">
          <g
             id="g37827">
            <line
               id="line37829"
               y2="5308.0298"
               x2="656.74799"
               y1="5282.332"
               x1="601.48401"
               style="fill:#ffffff" />
            <g
               id="g37831">
              <line
                 id="line37833"
                 y2="5283.6709"
                 x2="604.362"
                 y1="5282.332"
                 x1="601.48401"
                 stroke-miterlimit="10"
                 style="fill:none;stroke:#5fb12c;stroke-width:2.5;stroke-miterlimit:10" />
              <line
                 id="line37835"
                 y2="5305.7832"
                 x2="651.91498"
                 y1="5285.4878"
                 x1="608.271"
                 stroke-miterlimit="10"
                 style="fill:none;stroke:#5fb12c;stroke-width:2.5;stroke-miterlimit:10;stroke-dasharray:5.7471, 4.3103" />
              <line
                 id="line37837"
                 y2="5308.0298"
                 x2="656.74799"
                 y1="5306.6909"
                 x1="653.86902"
                 stroke-miterlimit="10"
                 style="fill:none;stroke:#5fb12c;stroke-width:2.5;stroke-miterlimit:10" />
            </g>
          </g>
        </g>
      </g>
    </g>
  </g>
</svg>
