<?xml version="1.0" encoding="UTF-8" standalone="no"?>
<svg
   xmlns:dc="http://purl.org/dc/elements/1.1/"
   xmlns:cc="http://creativecommons.org/ns#"
   xmlns:rdf="http://www.w3.org/1999/02/22-rdf-syntax-ns#"
   xmlns:svg="http://www.w3.org/2000/svg"
   xmlns="http://www.w3.org/2000/svg"
   version="1.1"
   id="svg2"
   viewBox="0 0 90 90.000004"
   height="90"
   width="90">
  <defs
     id="defs4" />
  <metadata
     id="metadata7">
    <rdf:RDF>
      <cc:Work
         rdf:about="">
        <dc:format>image/svg+xml</dc:format>
        <dc:type
           rdf:resource="http://purl.org/dc/dcmitype/StillImage" />
        <dc:title></dc:title>
      </cc:Work>
    </rdf:RDF>
  </metadata>
  <g
     transform="translate(-15.839123,-21.585905)"
     id="layer1">
    <path
       id="path4153"
       d="m 28.096129,93.152136 c -0.77019,-0.12109 -1.554068,-0.427926 -2.202771,-0.862333 -0.412151,-0.27592 -0.961813,-0.802994 -1.275656,-1.223107 -0.30637,-0.410139 -0.722927,-1.240724 -0.846193,-1.687266 -0.356094,-1.289925 -0.25309,-2.581181 0.298292,-3.739213 0.272381,-0.572118 0.541419,-0.968213 0.954343,-1.404865 0.847016,-0.895825 2.008081,-1.48124 3.23172,-1.629506 0.288801,-0.03491 9.067258,-0.04404 32.839908,-0.03408 31.115827,0.0133 32.458834,0.01662 32.765297,0.09051 1.355472,0.326533 2.428559,1.012843 3.201467,2.047459 0.306371,0.41014 0.722936,1.240725 0.846193,1.687267 0.274682,0.995056 0.274358,1.996013 -8.31e-4,2.98251 -0.112221,0.402162 -0.443092,1.100771 -0.71026,1.499774 -0.273261,0.408062 -0.798863,0.957742 -1.21738,1.273138 -0.402353,0.303179 -1.242521,0.724373 -1.692993,0.848703 -0.823073,0.227219 1.47214,0.212924 -33.489628,0.208601 -25.767251,0 -32.429968,-0.01496 -32.701383,-0.05735 z m 0,-21.30384 c -0.77019,-0.121089 -1.554068,-0.427925 -2.202771,-0.862333 -0.412151,-0.27592 -0.961813,-0.802993 -1.275656,-1.223106 -0.30637,-0.41014 -0.722927,-1.240725 -0.846193,-1.687267 -0.356094,-1.289925 -0.25309,-2.581155 0.298292,-3.739246 0.272381,-0.57211 0.541419,-0.968146 0.954343,-1.404856 0.847016,-0.895809 2.008081,-1.481224 3.23172,-1.629456 0.288801,-0.03498 9.067258,-0.04413 32.839908,-0.03415 31.115827,0.01305 32.458834,0.01671 32.765297,0.09055 1.355472,0.326507 2.428559,1.012792 3.201467,2.04745 0.306371,0.410131 0.722936,1.240708 0.846193,1.687241 0.274682,0.995024 0.274358,1.996015 -8.31e-4,2.982511 -0.112221,0.402161 -0.443092,1.100771 -0.71026,1.499775 -0.273261,0.408062 -0.798863,0.95774 -1.21738,1.273136 -0.402353,0.303181 -1.242521,0.724374 -1.692993,0.848703 -0.823073,0.227219 1.47214,0.212924 -33.489628,0.208603 -25.767251,0 -32.429968,-0.01496 -32.701383,-0.05735 z m 0,-21.303831 c -0.77019,-0.121072 -1.554068,-0.427934 -2.202771,-0.862309 -0.412151,-0.275986 -0.961813,-0.803017 -1.275656,-1.22313 -0.30637,-0.410132 -0.722927,-1.240709 -0.846193,-1.687242 -0.356094,-1.289951 -0.25309,-2.581181 0.298292,-3.739272 0.272381,-0.57211 0.541419,-0.968154 0.954343,-1.404856 0.847016,-0.895808 2.008081,-1.481232 3.23172,-1.629464 0.288801,-0.03498 9.067258,-0.04413 32.839908,-0.03415 31.115827,0.01305 32.458834,0.01671 32.765297,0.09054 1.355472,0.326516 2.428559,1.012792 3.201467,2.047458 0.306371,0.410123 0.722936,1.240701 0.846193,1.687242 0.274682,0.995015 0.274358,1.99599 -8.31e-4,2.982536 -0.112221,0.402103 -0.443092,1.100754 -0.71026,1.499741 -0.273261,0.408095 -0.798863,0.957766 -1.21738,1.273129 -0.402353,0.303179 -1.242521,0.724373 -1.692993,0.84872 -0.823073,0.227218 1.47214,0.212916 -33.489628,0.208635 -25.767251,-0.0033 -32.429968,-0.01488 -32.701383,-0.05751 z"
       style="fill:#2b2a29;fill-opacity:1" />
  </g>
</svg>
