<?xml version="1.0" encoding="UTF-8" standalone="no"?>
<!-- Created with Inkscape (http://www.inkscape.org/) -->

<svg
   xmlns:dc="http://purl.org/dc/elements/1.1/"
   xmlns:cc="http://creativecommons.org/ns#"
   xmlns:rdf="http://www.w3.org/1999/02/22-rdf-syntax-ns#"
   xmlns:svg="http://www.w3.org/2000/svg"
   xmlns="http://www.w3.org/2000/svg"
   xmlns:sodipodi="http://sodipodi.sourceforge.net/DTD/sodipodi-0.dtd"
   xmlns:inkscape="http://www.inkscape.org/namespaces/inkscape"
   width="6.0341935mm"
   height="4.3775487mm"
   viewBox="0 0 21.381001 15.510999"
   id="svg43548"
   version="1.1"
   inkscape:version="0.91 r13725"
   sodipodi:docname="icon-mail.svg">
  <defs
     id="defs43550" />
  <sodipodi:namedview
     id="base"
     pagecolor="#ffffff"
     bordercolor="#666666"
     borderopacity="1.0"
     inkscape:pageopacity="0.0"
     inkscape:pageshadow="2"
     inkscape:zoom="7.9195959"
     inkscape:cx="8.7283958"
     inkscape:cy="25.884511"
     inkscape:document-units="px"
     inkscape:current-layer="layer1"
     showgrid="false"
     fit-margin-top="0"
     fit-margin-left="0"
     fit-margin-right="0"
     fit-margin-bottom="0"
     inkscape:window-width="1920"
     inkscape:window-height="1025"
     inkscape:window-x="0"
     inkscape:window-y="27"
     inkscape:window-maximized="1" />
  <metadata
     id="metadata43553">
    <rdf:RDF>
      <cc:Work
         rdf:about="">
        <dc:format>image/svg+xml</dc:format>
        <dc:type
           rdf:resource="http://purl.org/dc/dcmitype/StillImage" />
        <dc:title></dc:title>
      </cc:Work>
    </rdf:RDF>
  </metadata>
  <g
     inkscape:label="Layer 1"
     inkscape:groupmode="layer"
     id="layer1"
     transform="translate(-269.3095,-313.17813)">
    <g
       id="g37085"
       transform="translate(-1060.1165,185.04413)">
      <g
         id="g37087">
        <path
           d="m 1348.604,143.645 -16.973,0 c -1.216,0 -2.205,-0.988 -2.205,-2.204 l 0,-11.104 c 0,-1.215 0.989,-2.203 2.205,-2.203 l 16.973,0 c 1.214,0 2.203,0.988 2.203,2.203 l 0,11.104 c 0,1.216 -0.989,2.204 -2.203,2.204 l 0,0 z m -16.973,-13.642 c -0.184,0 -0.336,0.15 -0.336,0.334 l 0,11.104 c 0,0.184 0.151,0.335 0.336,0.335 l 16.973,0 c 0.184,0 0.334,-0.151 0.334,-0.335 l 0,-11.104 c 0,-0.184 -0.15,-0.334 -0.334,-0.334 l -16.973,0 0,0 z"
           id="path37089"
           inkscape:connector-curvature="0"
           style="fill:#707173" />
      </g>
      <g
         id="g37091">
        <path
           d="m 1348.604,143.178 -16.973,0 c -0.715,0 -1.365,-0.451 -1.621,-1.122 -0.069,-0.182 -0.018,-0.386 0.126,-0.515 l 6.625,-5.908 c 0.192,-0.172 0.487,-0.155 0.659,0.037 0.172,0.193 0.155,0.488 -0.036,0.66 l -6.34,5.652 c 0.15,0.162 0.361,0.26 0.588,0.26 l 16.973,0 c 0.224,0 0.436,-0.098 0.586,-0.259 l -6.413,-5.719 c -0.192,-0.172 -0.208,-0.467 -0.036,-0.66 0.17,-0.193 0.465,-0.21 0.659,-0.038 l 6.698,5.974 c 0.144,0.129 0.195,0.333 0.126,0.514 -0.255,0.673 -0.905,1.124 -1.621,1.124 l 0,0 z"
           id="path37093"
           inkscape:connector-curvature="0"
           style="fill:#707173" />
      </g>
      <g
         id="g37095">
        <path
           d="m 1340.118,138.979 c -0.111,0 -0.223,-0.039 -0.312,-0.118 l -9.669,-8.623 c -0.144,-0.129 -0.195,-0.333 -0.126,-0.515 0.255,-0.671 0.905,-1.121 1.621,-1.121 l 16.973,0 c 0.715,0 1.365,0.451 1.619,1.122 0.069,0.181 0.018,0.385 -0.126,0.514 l -9.669,8.623 c -0.089,0.079 -0.2,0.118 -0.311,0.118 l 0,0 z m -9.073,-9.183 9.072,8.09 9.073,-8.091 c -0.15,-0.161 -0.361,-0.259 -0.586,-0.259 l -16.973,0 c -0.226,0 -0.438,0.098 -0.586,0.26 l 0,0 z"
           id="path37097"
           inkscape:connector-curvature="0"
           style="fill:#707173" />
      </g>
    </g>
  </g>
</svg>
