<?xml version="1.0" encoding="UTF-8" standalone="no"?>
<!-- Created with Inkscape (http://www.inkscape.org/) -->

<svg
   xmlns:dc="http://purl.org/dc/elements/1.1/"
   xmlns:cc="http://creativecommons.org/ns#"
   xmlns:rdf="http://www.w3.org/1999/02/22-rdf-syntax-ns#"
   xmlns:svg="http://www.w3.org/2000/svg"
   xmlns="http://www.w3.org/2000/svg"
   xmlns:sodipodi="http://sodipodi.sourceforge.net/DTD/sodipodi-0.dtd"
   xmlns:inkscape="http://www.inkscape.org/namespaces/inkscape"
   width="6.4659586mm"
   height="6.4984488mm"
   viewBox="0 0 22.910877 23.026"
   id="svg42944"
   version="1.1"
   inkscape:version="0.91 r13725"
   sodipodi:docname="icon-call.svg">
  <defs
     id="defs42946" />
  <sodipodi:namedview
     id="base"
     pagecolor="#ffffff"
     bordercolor="#666666"
     borderopacity="1.0"
     inkscape:pageopacity="0.0"
     inkscape:pageshadow="2"
     inkscape:zoom="5.6"
     inkscape:cx="0.67761534"
     inkscape:cy="-5.0175833"
     inkscape:document-units="px"
     inkscape:current-layer="layer1"
     showgrid="false"
     fit-margin-top="0"
     fit-margin-left="0"
     fit-margin-right="0"
     fit-margin-bottom="0"
     inkscape:window-width="1920"
     inkscape:window-height="1025"
     inkscape:window-x="0"
     inkscape:window-y="27"
     inkscape:window-maximized="1" />
  <metadata
     id="metadata42949">
    <rdf:RDF>
      <cc:Work
         rdf:about="">
        <dc:format>image/svg+xml</dc:format>
        <dc:type
           rdf:resource="http://purl.org/dc/dcmitype/StillImage" />
        <dc:title></dc:title>
      </cc:Work>
    </rdf:RDF>
  </metadata>
  <g
     inkscape:label="Layer 1"
     inkscape:groupmode="layer"
     id="layer1"
     transform="translate(-171.40172,-303.70634)">
    <g
       transform="translate(-1157.2594,220.27934)"
       id="g37063">
      <g
         id="g37065">
        <path
           style="fill:#707173"
           inkscape:connector-curvature="0"
           d="m 1345.787,106.453 c -4.161,0 -8.463,-1.916 -11.803,-5.256 l -0.068,-0.071 c -3.438,-3.435 -5.353,-7.852 -5.251,-12.111 l 0.01,-0.312 0.193,-0.244 c 0.299,-0.381 0.595,-0.716 0.903,-1.026 1.135,-1.133 2.468,-2 3.962,-2.58 0.181,-0.07 0.387,-0.107 0.61,-0.107 0.504,0 1.639,0.257 1.925,1.052 0.509,1.411 1.154,3.258 1.623,5.03 0.135,0.513 -0.024,1.712 -0.692,2.133 l -1.652,1.049 c 0.015,0.011 0.01,0.27 0.224,0.565 0.637,0.874 1.38,1.744 2.205,2.584 0.827,0.813 1.694,1.552 2.566,2.186 0.17,0.124 0.361,0.196 0.516,0.196 0.053,0 0.086,-0.009 0.093,-0.013 l 1.006,-1.614 c 0.454,-0.71 1.602,-0.73 1.732,-0.73 0.135,0 0.254,0.012 0.363,0.036 2.176,0.485 3.471,0.903 5.134,1.656 0.736,0.334 1.203,1.672 0.874,2.511 -0.577,1.491 -1.444,2.824 -2.575,3.957 -0.316,0.315 -0.662,0.62 -1.031,0.908 l -0.243,0.191 -0.621,0.01 0,0 z m -15.256,-17.082 c 0.015,3.609 1.759,7.488 4.709,10.439 l 0.091,0.093 c 2.957,2.954 6.758,4.668 10.414,4.681 0.219,-0.184 0.427,-0.372 0.621,-0.563 0.944,-0.946 1.67,-2.061 2.154,-3.312 -0.011,-0.006 -0.047,-0.121 -0.088,-0.213 -1.445,-0.643 -2.634,-1.018 -4.588,-1.454 -0.048,0.007 -0.143,0.026 -0.219,0.046 l -0.938,1.481 c -0.586,0.948 -2.135,1.098 -3.247,0.284 -0.944,-0.685 -1.882,-1.485 -2.785,-2.373 -0.9,-0.916 -1.703,-1.856 -2.393,-2.804 -0.458,-0.626 -0.646,-1.372 -0.515,-2.043 0.102,-0.519 0.389,-0.948 0.807,-1.207 l 1.478,-0.937 c 0.022,-0.087 0.04,-0.201 0.036,-0.257 -0.411,-1.536 -0.993,-3.222 -1.473,-4.562 -0.08,-0.029 -0.182,-0.054 -0.254,-0.054 -1.186,0.465 -2.301,1.192 -3.25,2.139 -0.187,0.188 -0.373,0.391 -0.56,0.616 l 0,0 z"
           id="path37067" />
      </g>
      <g
         id="g37069">
        <path
           style="fill:#707173"
           inkscape:connector-curvature="0"
           d="m 1350.637,95.262 c -0.517,0 -0.934,-0.418 -0.934,-0.934 0,-4.981 -4.052,-9.032 -9.032,-9.032 -0.517,0 -0.934,-0.418 -0.934,-0.934 0,-0.516 0.418,-0.935 0.934,-0.935 6.012,0 10.901,4.89 10.901,10.901 -10e-4,0.516 -0.419,0.934 -0.935,0.934 l 0,0 z"
           id="path37071" />
      </g>
      <g
         id="g37073">
        <path
           style="fill:#707173"
           inkscape:connector-curvature="0"
           d="m 1347.311,95.661 c -0.517,0 -0.934,-0.418 -0.934,-0.934 0,-3.366 -2.74,-6.105 -6.107,-6.105 -0.516,0 -0.934,-0.418 -0.934,-0.934 0,-0.516 0.418,-0.934 0.934,-0.934 4.397,0 7.976,3.577 7.976,7.974 0,0.515 -0.419,0.933 -0.935,0.933 l 0,0 z"
           id="path37075" />
      </g>
      <g
         id="g37077">
        <path
           style="fill:#707173"
           inkscape:connector-curvature="0"
           d="m 1343.827,96.06 c -0.517,0 -0.934,-0.418 -0.934,-0.934 0,-1.665 -1.356,-3.021 -3.022,-3.021 -0.516,0 -0.934,-0.418 -0.934,-0.934 0,-0.517 0.418,-0.935 0.934,-0.935 2.698,0 4.891,2.194 4.891,4.889 0,0.517 -0.418,0.935 -0.935,0.935 l 0,0 z"
           id="path37079" />
      </g>
    </g>
  </g>
</svg>
