<?xml version="1.0" encoding="UTF-8" standalone="no"?>
<svg
   xmlns:dc="http://purl.org/dc/elements/1.1/"
   xmlns:cc="http://creativecommons.org/ns#"
   xmlns:rdf="http://www.w3.org/1999/02/22-rdf-syntax-ns#"
   xmlns:svg="http://www.w3.org/2000/svg"
   xmlns="http://www.w3.org/2000/svg"
   version="1.1"
   id="svg42947"
   viewBox="0 0 170.748 98.635998"
   height="27.837271mm"
   width="48.188881mm">
  <defs
     id="defs42949" />
  <metadata
     id="metadata42952">
    <rdf:RDF>
      <cc:Work
         rdf:about="">
        <dc:format>image/svg+xml</dc:format>
        <dc:type
           rdf:resource="http://purl.org/dc/dcmitype/StillImage" />
        <dc:title></dc:title>
      </cc:Work>
    </rdf:RDF>
  </metadata>
  <g
     transform="translate(-471.76886,-283.0442)"
     id="layer1">
    <g
       id="g37019"
       transform="translate(79.757857,241.1552)">
      <path
         id="path37021"
         d="m 451.02,100.882 c -2.479,2.483 -5.906,4.02 -9.692,4.02 -7.564,0 -13.695,-6.131 -13.695,-13.695 0,-7.564 6.131,-13.695 13.695,-13.695 3.802,0 7.241,1.55 9.723,4.052 L 476.237,56.37 c -8.928,-8.946 -21.271,-14.481 -34.908,-14.481 -27.238,0 -49.318,22.081 -49.318,49.318 0,27.237 22.081,49.318 49.318,49.318 13.62,0 25.951,-5.521 34.876,-14.447 l -25.185,-25.196 0,0 z"
         style="fill:#5fb12c" />
      <path
         id="path37023"
         d="m 451.02,100.882 c -2.479,2.483 -5.906,4.02 -9.692,4.02 -7.564,0 -13.695,-6.131 -13.695,-13.695 0,-7.564 6.131,-13.695 13.695,-13.695 3.802,0 7.241,1.55 9.723,4.052 l 11.115,-11.119 c -5.326,-5.346 -12.696,-8.654 -20.838,-8.654 -16.246,0 -29.416,13.17 -29.416,29.416 0,16.246 13.17,29.416 29.416,29.416 8.126,0 15.482,-3.295 20.806,-8.622 l -11.114,-11.119 0,0 z"
         style="fill:#2b2a29" />
      <polygon
         id="polygon37025"
         points="439.438,97.102 443.26,97.102 443.26,93.172 447.19,93.172 447.19,89.35 443.26,89.35 443.26,85.42 439.438,85.42 439.438,89.35 435.508,89.35 435.508,93.172 439.438,93.172 "
         style="fill:#2b2a29" />
      <polygon
         id="polygon37027"
         points="452.688,97.102 456.51,97.102 456.51,93.172 460.44,93.172 460.44,89.35 456.51,89.35 456.51,85.42 452.688,85.42 452.688,89.35 448.758,89.35 448.758,93.172 452.688,93.172 "
         style="fill:#2b2a29" />
      <g
         id="g37029">
        <path
           id="path37031"
           d="m 469.467,100.151 0,-18.548 5.283,0 c 2.069,0 3.511,0.095 4.327,0.285 0.815,0.19 1.518,0.509 2.109,0.957 0.668,0.507 1.18,1.153 1.539,1.938 0.359,0.786 0.538,1.651 0.538,2.597 0,1.436 -0.353,2.604 -1.058,3.503 -0.705,0.899 -1.734,1.497 -3.085,1.793 l 5.055,7.475 -5.713,0 -4.257,-7.259 0,7.259 -4.738,0 z m 4.738,-9.781 0.938,0 c 1.09,0 1.885,-0.186 2.388,-0.557 0.503,-0.371 0.754,-0.954 0.754,-1.748 0,-0.929 -0.234,-1.59 -0.703,-1.983 -0.469,-0.393 -1.257,-0.589 -2.363,-0.589 l -1.013,0 0,4.877 z"
           style="fill:#2b2a29" />
        <path
           id="path37033"
           d="m 485.987,81.603 5.042,0 0,9.02 c 0,1.326 0.034,2.278 0.102,2.857 0.067,0.578 0.181,1.062 0.342,1.45 0.194,0.473 0.532,0.834 1.014,1.083 0.481,0.249 1.068,0.374 1.761,0.374 0.693,0 1.277,-0.125 1.755,-0.374 0.477,-0.249 0.817,-0.61 1.02,-1.083 0.161,-0.388 0.274,-0.872 0.342,-1.45 0.067,-0.578 0.101,-1.531 0.101,-2.857 l 0,-1.267 0,-7.753 5.03,0 0,9.806 c 0,2.036 -0.122,3.537 -0.367,4.504 -0.245,0.967 -0.659,1.792 -1.241,2.477 -0.634,0.752 -1.503,1.316 -2.61,1.691 -1.106,0.376 -2.45,0.564 -4.029,0.564 -1.588,0 -2.933,-0.188 -4.035,-0.564 -1.102,-0.376 -1.974,-0.939 -2.616,-1.691 -0.575,-0.684 -0.986,-1.509 -1.236,-2.477 -0.249,-0.967 -0.374,-2.468 -0.374,-4.504 l 0,-1.925 0,-7.881 z"
           style="fill:#2b2a29" />
        <path
           id="path37035"
           d="m 507.156,94.158 c 0.752,0.853 1.492,1.491 2.223,1.913 0.731,0.422 1.459,0.633 2.186,0.633 0.675,0 1.23,-0.182 1.666,-0.545 0.435,-0.363 0.653,-0.823 0.653,-1.381 0,-0.616 -0.188,-1.091 -0.564,-1.425 -0.376,-0.333 -1.227,-0.678 -2.553,-1.033 -1.816,-0.49 -3.099,-1.127 -3.851,-1.913 -0.752,-0.786 -1.128,-1.862 -1.128,-3.231 0,-1.774 0.593,-3.22 1.78,-4.339 1.186,-1.119 2.726,-1.679 4.618,-1.679 1.022,0 1.991,0.137 2.907,0.412 0.917,0.274 1.784,0.69 2.603,1.248 l -1.583,3.636 c -0.574,-0.49 -1.164,-0.859 -1.767,-1.109 -0.604,-0.249 -1.202,-0.374 -1.793,-0.374 -0.608,0 -1.102,0.146 -1.482,0.437 -0.38,0.291 -0.57,0.665 -0.57,1.121 0,0.465 0.167,0.836 0.5,1.115 0.334,0.279 0.978,0.545 1.932,0.798 l 0.228,0.063 c 2.061,0.557 3.416,1.17 4.067,1.837 0.439,0.456 0.773,1.003 1.001,1.641 0.228,0.638 0.342,1.345 0.342,2.122 0,1.968 -0.646,3.55 -1.938,4.744 -1.292,1.195 -3.015,1.793 -5.169,1.793 -1.292,0 -2.468,-0.22 -3.528,-0.659 -1.06,-0.439 -2.08,-1.128 -3.06,-2.065 l 2.28,-3.76 z"
           style="fill:#2b2a29" />
        <path
           id="path37037"
           d="m 522.232,94.158 c 0.752,0.853 1.493,1.491 2.223,1.913 0.731,0.422 1.459,0.633 2.186,0.633 0.675,0 1.23,-0.182 1.666,-0.545 0.435,-0.363 0.652,-0.823 0.652,-1.381 0,-0.616 -0.188,-1.091 -0.563,-1.425 -0.376,-0.333 -1.227,-0.678 -2.553,-1.033 -1.816,-0.49 -3.099,-1.127 -3.851,-1.913 -0.752,-0.786 -1.128,-1.862 -1.128,-3.231 0,-1.774 0.593,-3.22 1.78,-4.339 1.187,-1.119 2.726,-1.679 4.618,-1.679 1.022,0 1.991,0.137 2.907,0.412 0.916,0.274 1.784,0.69 2.603,1.248 l -1.583,3.636 c -0.574,-0.49 -1.164,-0.859 -1.767,-1.109 -0.604,-0.249 -1.201,-0.374 -1.792,-0.374 -0.608,0 -1.102,0.146 -1.482,0.437 -0.38,0.291 -0.57,0.665 -0.57,1.121 0,0.465 0.167,0.836 0.5,1.115 0.334,0.279 0.978,0.545 1.932,0.798 l 0.228,0.063 c 2.061,0.557 3.416,1.17 4.067,1.837 0.439,0.456 0.773,1.003 1.001,1.641 0.228,0.638 0.342,1.345 0.342,2.122 0,1.968 -0.646,3.55 -1.938,4.744 -1.292,1.195 -3.015,1.793 -5.169,1.793 -1.292,0 -2.469,-0.22 -3.528,-0.659 -1.06,-0.439 -2.08,-1.128 -3.06,-2.065 l 2.279,-3.76 z"
           style="fill:#2b2a29" />
        <path
           id="path37039"
           d="m 536.612,100.151 0,-18.548 5.106,0 0,18.547 -5.106,0 z"
           style="fill:#2b2a29" />
        <path
           id="path37041"
           d="m 543.617,100.151 6.398,-18.547 6.334,0 6.41,18.547 -5.029,0 -0.938,-3.319 -7.183,0 -0.963,3.319 -5.029,0 z m 7.082,-6.93 5.029,0 -1.888,-6.119 c -0.059,-0.186 -0.14,-0.486 -0.241,-0.899 -0.101,-0.414 -0.232,-0.946 -0.393,-1.596 -0.109,0.456 -0.218,0.891 -0.323,1.305 -0.106,0.414 -0.213,0.811 -0.323,1.191 l -1.861,6.118 z"
           style="fill:#2b2a29" />
      </g>
    </g>
  </g>
</svg>
