<?xml version="1.0" encoding="UTF-8" standalone="no"?>
<svg
   xmlns:dc="http://purl.org/dc/elements/1.1/"
   xmlns:cc="http://creativecommons.org/ns#"
   xmlns:rdf="http://www.w3.org/1999/02/22-rdf-syntax-ns#"
   xmlns:svg="http://www.w3.org/2000/svg"
   xmlns="http://www.w3.org/2000/svg"
   version="1.1"
   id="svg43599"
   viewBox="0 0 342.22418 295.26714"
   height="83.330948mm"
   width="96.583267mm">
  <defs
     id="defs43601" />
  <metadata
     id="metadata43604">
    <rdf:RDF>
      <cc:Work
         rdf:about="">
        <dc:format>image/svg+xml</dc:format>
        <dc:type
           rdf:resource="http://purl.org/dc/dcmitype/StillImage" />
        <dc:title></dc:title>
      </cc:Work>
    </rdf:RDF>
  </metadata>
  <g
     transform="translate(-37.459342,-147.58578)"
     id="layer1">
    <g
       id="g37491"
       transform="translate(-322.92635,-504.02322)">
      <g
         id="g37493">
        <path
           id="path37495"
           d="m 444.13,941.374 83.121,0 c 0,0 -5.379,-21.171 -33.491,-58.133 -27.354,-35.966 -43.452,-46.404 -48.167,-48.925 -0.975,-0.522 -0.951,-0.528 -1.894,-0.026 -4.652,2.475 -20.766,12.861 -48.215,48.951 -28.112,36.962 -33.491,58.133 -33.491,58.133 l 83.121,0 -0.984,0 z"
           stroke-miterlimit="10"
           style="fill:#ffffff;stroke:#5fb12c;stroke-width:2.5;stroke-miterlimit:10" />
        <line
           id="line37497"
           y2="922.94702"
           x2="462.505"
           y1="922.94702"
           x1="426.73801"
           stroke-miterlimit="10"
           style="fill:#ffffff;stroke:#5fb12c;stroke-width:2.5;stroke-miterlimit:10" />
        <circle
           id="circle37499"
           r="10.785"
           cy="892.646"
           cx="444.621"
           stroke-miterlimit="10"
           style="fill:#ffffff;stroke:#5fb12c;stroke-width:2.5;stroke-miterlimit:10" />
        <rect
           id="rect37501"
           height="140.77699"
           width="15.96"
           stroke-miterlimit="10"
           y="725.16998"
           x="436.642"
           style="fill:#ffffff;stroke:#5fb12c;stroke-width:2.5;stroke-miterlimit:10" />
        <polygon
           id="polygon37503"
           points="462.371,675.627 447.271,675.627 426.872,675.627 436.579,725.17 447.271,725.17 452.664,725.17 "
           stroke-miterlimit="10"
           style="fill:#ffffff;stroke:#5fb12c;stroke-width:2.5;stroke-miterlimit:10" />
        <g
           id="g37505">
          <line
             id="line37507"
             y2="683.31799"
             x2="415.26199"
             y1="683.31799"
             x1="428.423"
             stroke-miterlimit="10"
             style="fill:#ffffff;stroke:#5fb12c;stroke-width:2.5;stroke-miterlimit:10" />
          <circle
             id="circle37509"
             r="5.217"
             cy="683.31799"
             cx="410.785"
             stroke-miterlimit="10"
             style="fill:#ffffff;stroke:#5fb12c;stroke-width:2.5;stroke-miterlimit:10" />
        </g>
        <g
           id="g37511">
          <line
             id="line37513"
             y2="700.37"
             x2="418.241"
             y1="700.37"
             x1="431.40302"
             stroke-miterlimit="10"
             style="fill:#ffffff;stroke:#5fb12c;stroke-width:2.5;stroke-miterlimit:10" />
          <circle
             id="circle37515"
             r="5.217"
             cy="700.37"
             cx="413.76501"
             stroke-miterlimit="10"
             style="fill:#ffffff;stroke:#5fb12c;stroke-width:2.5;stroke-miterlimit:10" />
        </g>
        <g
           id="g37517">
          <line
             id="line37519"
             y2="717.42297"
             x2="421.84201"
             y1="717.42297"
             x1="435.004"
             stroke-miterlimit="10"
             style="fill:#ffffff;stroke:#5fb12c;stroke-width:2.5;stroke-miterlimit:10" />
          <circle
             id="circle37521"
             r="5.217"
             cy="717.42297"
             cx="417.366"
             stroke-miterlimit="10"
             style="fill:#ffffff;stroke:#5fb12c;stroke-width:2.5;stroke-miterlimit:10" />
        </g>
      </g>
      <g
         id="g37523">
        <polygon
           id="polygon37525"
           points="590.857,930.282 549.911,930.282 553.695,887.49 587.073,887.49 "
           stroke-miterlimit="10"
           style="fill:#ffffff;stroke:#5fb12c;stroke-width:2.5;stroke-miterlimit:10" />
        <rect
           id="rect37527"
           height="11.092"
           width="66.945"
           stroke-miterlimit="10"
           y="930.28198"
           x="536.91101"
           style="fill:#ffffff;stroke:#5fb12c;stroke-width:2.5;stroke-miterlimit:10" />
        <rect
           id="rect37529"
           height="111.892"
           width="181.11301"
           stroke-miterlimit="10"
           y="789.771"
           x="479.827"
           style="fill:#ffffff;stroke:#5fb12c;stroke-width:2.5;stroke-miterlimit:10" />
        <rect
           id="rect37531"
           height="11.815"
           width="181.11301"
           stroke-miterlimit="10"
           y="889.84802"
           x="479.827"
           style="fill:#ffffff;stroke:#5fb12c;stroke-width:2.5;stroke-miterlimit:10" />
      </g>
      <g
         id="g37533">
        <line
           id="line37535"
           y2="805.51501"
           x2="572.99298"
           y1="805.51501"
           x1="494.99301"
           stroke-miterlimit="10"
           style="fill:#ffffff;stroke:#5fb12c;stroke-width:2.5;stroke-miterlimit:10" />
        <line
           id="line37537"
           y2="844.58002"
           x2="581.74298"
           y1="844.58002"
           x1="494.99301"
           stroke-miterlimit="10"
           style="fill:#ffffff;stroke:#5fb12c;stroke-width:2.5;stroke-miterlimit:10" />
        <line
           id="line37539"
           y2="854.34698"
           x2="581.74298"
           y1="854.34698"
           x1="494.99301"
           stroke-miterlimit="10"
           style="fill:#ffffff;stroke:#5fb12c;stroke-width:2.5;stroke-miterlimit:10" />
        <line
           id="line37541"
           y2="815.28198"
           x2="546.159"
           y1="815.28198"
           x1="494.99301"
           stroke-miterlimit="10"
           style="fill:#ffffff;stroke:#5fb12c;stroke-width:2.5;stroke-miterlimit:10" />
        <line
           id="line37543"
           y2="864.11298"
           x2="546.159"
           y1="864.11298"
           x1="494.99301"
           stroke-miterlimit="10"
           style="fill:#ffffff;stroke:#5fb12c;stroke-width:2.5;stroke-miterlimit:10" />
        <line
           id="line37545"
           y2="825.04797"
           x2="555.409"
           y1="825.04797"
           x1="494.99301"
           stroke-miterlimit="10"
           style="fill:#ffffff;stroke:#5fb12c;stroke-width:2.5;stroke-miterlimit:10" />
        <line
           id="line37547"
           y2="873.87903"
           x2="555.409"
           y1="873.87903"
           x1="494.99301"
           stroke-miterlimit="10"
           style="fill:#ffffff;stroke:#5fb12c;stroke-width:2.5;stroke-miterlimit:10" />
        <line
           id="line37549"
           y2="834.81403"
           x2="604.909"
           y1="834.81403"
           x1="494.99301"
           stroke-miterlimit="10"
           style="fill:#ffffff;stroke:#5fb12c;stroke-width:2.5;stroke-miterlimit:10" />
      </g>
      <polygon
         id="polygon37551"
         points="588.75,697.618 592.141,697.618 592.141,694.13 595.629,694.13 595.629,690.739 592.141,690.739 592.141,687.252 588.75,687.252 588.75,690.739 585.263,690.739 585.263,694.13 588.75,694.13 "
         style="fill:#5fb12c" />
      <polygon
         id="polygon37553"
         points="530.592,661.975 533.983,661.975 533.983,658.488 537.471,658.488 537.471,655.096 533.983,655.096 533.983,651.609 530.592,651.609 530.592,655.096 527.105,655.096 527.105,658.488 530.592,658.488 "
         style="fill:#5fb12c" />
      <polygon
         id="polygon37555"
         points="539.384,727.635 542.775,727.635 542.775,724.147 546.263,724.147 546.263,720.756 542.775,720.756 542.775,717.268 539.384,717.268 539.384,720.756 535.896,720.756 535.896,724.147 539.384,724.147 "
         style="fill:#5fb12c" />
      <polygon
         id="polygon37557"
         points="570.391,767.096 573.782,767.096 573.782,763.609 577.27,763.609 577.27,760.217 573.782,760.217 573.782,756.73 570.391,756.73 570.391,760.217 566.904,760.217 566.904,763.609 570.391,763.609 "
         style="fill:#5fb12c" />
      <g
         id="g37559">
        <path
           id="path37561"
           d="m 661.357,945.626 c -12.116,0.018 -19.722,-1.759 -22.638,-3.329 -2.917,-1.571 -18.388,-28.23 -17.725,-53.847 0.561,-21.651 8.793,-29.293 10.831,-36.467 1.829,-6.438 -0.084,-12.284 0.925,-18.454 2.253,-13.778 14.046,-24.365 28.439,-24.365 l -0.045,0 c 14.392,0 26.186,10.587 28.439,24.365 1.009,6.17 -0.905,12.016 0.925,18.454 2.039,7.174 10.271,14.816 10.831,36.467 0.664,25.617 -14.808,52.276 -17.725,53.847 -2.917,1.57 -10.523,3.347 -22.638,3.329 l 0.381,0 z"
           stroke-miterlimit="10"
           style="fill:#ffffff;stroke:#5fb12c;stroke-width:2.5;stroke-miterlimit:10" />
        <circle
           id="circle37563"
           r="19.622"
           cy="838.138"
           cx="661.16602"
           stroke-miterlimit="10"
           style="fill:none;stroke:#5fb12c;stroke-width:2.5;stroke-miterlimit:10" />
        <path
           id="path37565"
           d="m 682.684,826.439 c 0,0 -6.114,5.048 -15.93,2.805 -9.271,-2.119 -11.788,-9.729 -11.788,-9.729 0,0 -0.583,11.642 -12.367,12.259"
           stroke-miterlimit="10"
           style="fill:none;stroke:#5fb12c;stroke-width:2.5;stroke-linejoin:round;stroke-miterlimit:10" />
        <path
           id="path37567"
           d="m 658.341,837.764 c 0,0 -3.534,-4.415 -7.948,0"
           stroke-miterlimit="10"
           style="fill:none;stroke:#5fb12c;stroke-width:2.5;stroke-linejoin:round;stroke-miterlimit:10" />
        <path
           id="path37569"
           d="m 672.873,837.764 c 0,0 -3.534,-4.415 -7.948,0"
           stroke-miterlimit="10"
           style="fill:none;stroke:#5fb12c;stroke-width:2.5;stroke-linejoin:round;stroke-miterlimit:10" />
        <line
           id="line37571"
           y2="838.75098"
           x2="654.367"
           y1="835.80298"
           x1="654.367"
           stroke-miterlimit="10"
           style="fill:none;stroke:#5fb12c;stroke-width:2.5;stroke-linejoin:round;stroke-miterlimit:10" />
        <line
           id="line37573"
           y2="838.75098"
           x2="668.89801"
           y1="835.80298"
           x1="668.89801"
           stroke-miterlimit="10"
           style="fill:none;stroke:#5fb12c;stroke-width:2.5;stroke-linejoin:round;stroke-miterlimit:10" />
        <path
           id="path37575"
           d="m 655.041,847.468 c 1.508,1.676 3.693,2.731 6.125,2.731 2.432,0 4.617,-1.055 6.125,-2.731"
           stroke-miterlimit="10"
           style="fill:none;stroke:#5fb12c;stroke-width:2.5;stroke-linejoin:round;stroke-miterlimit:10" />
        <g
           id="g37577">
          <path
             id="path37579"
             d="m 662.033,863.828 c -1.111,4.161 -0.947,8.701 0.76,13.013 1.707,4.312 4.695,7.734 8.354,10.007 1.111,-4.161 0.947,-8.701 -0.761,-13.013 -1.707,-4.312 -4.695,-7.734 -8.353,-10.007 z"
             stroke-miterlimit="10"
             style="fill:none;stroke:#5fb12c;stroke-width:2.5;stroke-linejoin:round;stroke-miterlimit:10" />
          <path
             id="path37581"
             d="m 660.299,863.828 c 1.111,4.161 0.947,8.701 -0.76,13.013 -1.707,4.312 -4.695,7.734 -8.354,10.007 -1.111,-4.161 -0.947,-8.701 0.761,-13.013 1.706,-4.312 4.694,-7.734 8.353,-10.007 z"
             stroke-miterlimit="10"
             style="fill:none;stroke:#5fb12c;stroke-width:2.5;stroke-linejoin:round;stroke-miterlimit:10" />
        </g>
        <circle
           id="circle37583"
           r="4.8130002"
           cy="862.573"
           cx="661.16602"
           stroke-miterlimit="10"
           style="fill:#ffffff;stroke:#5fb12c;stroke-width:2.5;stroke-linejoin:round;stroke-miterlimit:10" />
        <path
           id="path37585"
           d="m 665.979,864.749 c 0,0 9.421,8.557 33.873,10.589"
           stroke-miterlimit="10"
           style="fill:none;stroke:#5fb12c;stroke-width:2.5;stroke-linejoin:round;stroke-miterlimit:10" />
        <path
           id="path37587"
           d="m 656.353,864.749 c 0,0 -9.421,8.557 -33.873,10.589"
           stroke-miterlimit="10"
           style="fill:none;stroke:#5fb12c;stroke-width:2.5;stroke-linejoin:round;stroke-miterlimit:10" />
      </g>
    </g>
  </g>
</svg>
