<?xml version="1.0" encoding="utf-8"?>
<!-- Generator: Adobe Illustrator 18.1.1, SVG Export Plug-In . SVG Version: 6.00 Build 0)  -->
<svg version="1.1" id="Layer_1" xmlns="http://www.w3.org/2000/svg" xmlns:xlink="http://www.w3.org/1999/xlink" x="0px" y="0px"
	 viewBox="330.9 274.1 180 49.4" enable-background="new 330.9 274.1 180 49.4" xml:space="preserve">
<g id="Layer_1_1_">
</g>
<polygon fill="#EF4123" points="343.7,278.8 332.1,302.7 348.2,321.1 370.4,321.1 381.5,296.8 366.6,276.4 "/>
<path d="M402.4,320.9l-1.9-4.5h-10.4l-1.9,4.5h-4l10.8-24.1h0.8l10.7,24.1H402.4z M395.2,304.1l-4,9.4h8.1l-4-9.4H395.2L395.2,304.1
	z"/>
<path d="M412.7,313.6v7.4H409v-16h2.8l0.6,2.7c0,0,0.1,0,0.1,0c1-2.1,2.7-3.1,5-3.1c0.7,0,1.2,0.1,1.7,0.3v3.5
	c-0.7-0.3-1.4-0.4-2.1-0.4C414.5,307.9,412.7,310.1,412.7,313.6z"/>
<path d="M426.2,299.9h0.8v5.1h4.4v2.9h-4.4v7.7c0,1.8,0.6,2.7,2.2,2.7c0.9,0,1.9-0.3,2.8-0.9v3c-1.1,0.7-2.4,1.1-3.8,1.1
	c-3.8,0-5-2.1-5-6v-7.4h-2.6v-2.2l2.9-0.8L426.2,299.9z"/>
<path d="M447.2,306.8c1.4,1.5,2.1,3.5,2.1,6v0.9h-12c0.2,3.1,2.3,4.7,5.3,4.7c2.1,0,4.1-0.6,5.9-1.9v3.1c-1.7,1.2-3.8,1.8-6.2,1.8
	c-2.8,0-5-0.8-6.5-2.3s-2.3-3.6-2.3-6.1c0-2.4,0.8-4.4,2.3-6c1.5-1.6,3.5-2.4,5.8-2.4C444,304.5,445.8,305.2,447.2,306.8z
	 M437.4,311.2h8.4c-0.4-2.4-1.9-3.9-4.1-3.9C439.4,307.3,437.8,308.9,437.4,311.2z"/>
<path d="M464.5,305.2v3.2c-1-0.6-2.2-0.9-3.5-0.9c-3.1,0-5.3,2.1-5.3,5.5c0,1.6,0.5,2.9,1.4,3.8c1,0.9,2.2,1.4,3.8,1.4
	c1.6,0,3-0.4,4.2-1.2v3.1c-1.3,0.7-3,1.1-5.1,1.1c-2.6,0-4.7-0.8-6.1-2.3s-2.2-3.5-2.2-5.9c0-2.5,0.8-4.5,2.4-6.2
	c1.6-1.6,3.7-2.4,6.2-2.4C462,304.5,463.4,304.7,464.5,305.2z"/>
<path fill="#EF4123" d="M476,307.7l7-8.8l0-0.1h-10.1v-1.7h13.6v0.5l-7,8.5c4.5,0,7.3,2.8,7.3,7.4c0,2.3-0.8,4.2-2.4,5.6
	c-1.5,1.4-3.5,2.1-5.7,2.1c-2.7,0-5-0.7-6.8-2.1v-2.3c1.9,1.8,4.2,2.6,6.8,2.6c1.8,0,3.3-0.6,4.3-1.7c1.1-1.1,1.7-2.5,1.7-4.2
	c0-3.9-2.5-5.8-6.1-5.8c-0.7,0-1.5,0.1-2.3,0.3L476,307.7z"/>
<path fill="#EF4123" d="M491.5,320.9v-23.8h7.6c3.3,0,6,1.1,7.9,3.2c2,2.1,3,5,3,8.6c0,3.6-1,6.5-2.8,8.7s-4.5,3.3-7.7,3.3H491.5z
	 M505.7,301.8c-1.5-1.9-3.7-2.8-6.6-2.8h-5.6v20h5.8c5.7,0,8.7-4,8.7-10C508,306.1,507.2,303.7,505.7,301.8z"/>
<g>
	<g>
		<polygon fill="#DA4128" points="366.6,276.4 343.7,278.8 348,290.4 		"/>
	</g>
	<g>
		<polygon fill="#D1494A" points="366.6,276.4 376.4,300.6 381.5,296.8 		"/>
	</g>
	<g>
		<polygon fill="#F37860" points="376.4,300.6 348,290.4 366.6,276.4 		"/>
	</g>
	<g>
		<polygon fill="#C42127" points="376.4,300.6 370.4,321.1 381.5,296.8 		"/>
	</g>
	<g>
		<polygon fill="#EF4123" points="376.4,300.6 350.5,316.5 370.4,321.1 		"/>
	</g>
	<g>
		<polygon fill="#EF4123" points="350.5,316.5 348,290.4 332.1,302.7 		"/>
	</g>
	<g>
		<polygon fill="#AA2024" points="348.2,321.1 370.4,321.1 350.5,316.5 		"/>
	</g>
	<g>
		<polygon fill="#C53928" points="332.1,302.7 343.7,278.8 348,290.4 		"/>
	</g>
	<polygon fill="#891A1C" points="350.5,316.5 332.1,302.7 348.2,321.1 	"/>
	<g>
		<polygon fill="#F8AB98" points="348,290.4 376.4,300.6 350.5,316.5 		"/>
	</g>
</g>
</svg>
